<?xml version="1.0" encoding="UTF-8" standalone="no"?>
<!-- Generator: Adobe Illustrator 18.1.1, SVG Export Plug-In . SVG Version: 6.00 Build 0)  -->

<svg
   xmlns:dc="http://purl.org/dc/elements/1.1/"
   xmlns:cc="http://creativecommons.org/ns#"
   xmlns:rdf="http://www.w3.org/1999/02/22-rdf-syntax-ns#"
   xmlns:svg="http://www.w3.org/2000/svg"
   xmlns="http://www.w3.org/2000/svg"
   xmlns:sodipodi="http://sodipodi.sourceforge.net/DTD/sodipodi-0.dtd"
   xmlns:inkscape="http://www.inkscape.org/namespaces/inkscape"
   version="1.1"
   id="Capa_1"
   x="0px"
   y="0px"
   viewBox="0 0 320.83 320.83"
   style="enable-background:new 0 0 320.83 320.83;"
   xml:space="preserve"
   width="512px"
   height="512px"
   inkscape:version="0.91 r13725"
   sodipodi:docname="warning-sign.svg"><metadata
     id="metadata47"><rdf:RDF><cc:Work
         rdf:about=""><dc:format>image/svg+xml</dc:format><dc:type
           rdf:resource="http://purl.org/dc/dcmitype/StillImage" /></cc:Work></rdf:RDF></metadata><defs
     id="defs45" /><sodipodi:namedview
     pagecolor="#ffffff"
     bordercolor="#666666"
     borderopacity="1"
     objecttolerance="10"
     gridtolerance="10"
     guidetolerance="10"
     inkscape:pageopacity="0"
     inkscape:pageshadow="2"
     inkscape:window-width="1920"
     inkscape:window-height="1058"
     id="namedview43"
     showgrid="false"
     inkscape:zoom="0.4609375"
     inkscape:cx="256"
     inkscape:cy="256"
     inkscape:window-x="-8"
     inkscape:window-y="-8"
     inkscape:window-maximized="1"
     inkscape:current-layer="Capa_1" /><g
     id="g3"
     style="fill:#f6bb00;fill-opacity:1"><g
       id="g5"
       style="fill:#f6bb00;fill-opacity:1"><path
         d="M21.617,290.246h277.604c9.469,0,17.013-4.553,20.168-12.184c2.904-7.011,1.36-14.8-4.107-21.212    L180.497,39.684l-1.333-1.333c-5.009-5.009-11.667-7.767-18.748-7.767c-7.082,0-13.739,2.758-18.743,7.767l-1.333,1.333    L5.55,256.844c-5.466,6.413-7.016,14.207-4.106,21.212C4.603,285.688,12.142,290.246,21.617,290.246z M160.416,69.213    l116.934,188.393H43.487L160.416,69.213z"
         fill="#D80027"
         id="path7"
         style="fill:#f6bb00;fill-opacity:1" /><path
         d="M160.416,105.345c-9.197,0-16.654,7.457-16.654,16.654v71.388c0,9.197,7.457,16.654,16.654,16.654    s16.654-7.457,16.654-16.654v-71.388C177.076,112.802,169.619,105.345,160.416,105.345z"
         fill="#D80027"
         id="path9"
         style="fill:#f6bb00;fill-opacity:1" /><circle
         cx="160.248"
         cy="234.903"
         r="16.486"
         fill="#D80027"
         id="circle11"
         style="fill:#f6bb00;fill-opacity:1" /></g></g><g
     id="g13" /><g
     id="g15" /><g
     id="g17" /><g
     id="g19" /><g
     id="g21" /><g
     id="g23" /><g
     id="g25" /><g
     id="g27" /><g
     id="g29" /><g
     id="g31" /><g
     id="g33" /><g
     id="g35" /><g
     id="g37" /><g
     id="g39" /><g
     id="g41" /></svg>